{"title":"Game of Thrones S03E10 480p HDTV x264 - VYTO [P2PDL]","uid":8560366,"size":218033497,"categoryP":"video","categoryS":"tv_shows","magnet":"?xt=urn:btih:0a0034047fc9cb4bc34873e2ff7deed3b0c02a4d&amp;dn=Game+of+Thrones+S03E10+480p+HDTV+x264+-+VYTO+%5BP2PDL%5D&amp;tr=udp%3A%2F%2Ftracker.openbittorrent.com%3A80&amp;tr=udp%3A%2F%2Fopen.demonii.com%3A1337&amp;tr=udp%3A%2F%2Ftracker.coppersurfer.tk%3A6969&amp;tr=udp%3A%2F%2Fexodus.desync.com%3A6969","seeders":1,"leechers":0,"uploader":"ValidusVyto","files":-1,"time":1370824209,"description":"__________________  Visit us at our Semi Public Bittorrent Community ____________________\n  &lt;a href=&quot;\nhttp://p2pdl.com&quot; rel=&quot;nofollow&quot; target=&quot;_NEW&quot;&gt;\nhttp://p2pdl.com&lt;/a&gt;  ____________________________________ &lt;a href=&quot; http://p2pdl.com&quot; rel=&quot;nofollow&quot; target=&quot;_NEW&quot;&gt; http://p2pdl.com&lt;/a&gt;\n\n &lt;a href=&quot;\nhttp://ultraimg.com/images/2CGan.jpg&quot; rel=&quot;nofollow&quot; target=&quot;_NEW&quot;&gt;\nhttp://ultraimg.com/images/2CGan.jpg&lt;/a&gt;\n\n\nGame of Thrones S03E10 480p HDTV x264 - VYTO\n\nGame of Thrones S03E10 (Mhysa)\n\nIMDB:  &lt;a href=&quot;\nhttp://www.imdb.com/title/tt2178796/&quot; rel=&quot;nofollow&quot; target=&quot;_NEW&quot;&gt;\nhttp://www.imdb.com/title/tt2178796/&lt;/a&gt;\n\n\nFormat                         : MPEG-4\nFormat profile                 : Base Media\nCodec ID                       : isom\nFile size                      : 204 MiB\nDuration                       : 1h 4mn\nOverall bit rate               : 443 Kbps\n\nVideo\nFormat                         : AVC\nBit rate                       : 400 Kbps\nWidth                          : 720 pixels\nHeight                         : 400 pixels\nDisplay aspect ratio           : 16:9\nFrame rate mode                : Constant\nFrame rate                     : 23.976 fps\nStream size                    : 184 MiB (90%)\nWriting library                : x264 core 130 r2273\n\nAudio\nID                             : 2\nFormat                         : AAC\nBit rate mode                  : Variable\nBit rate                       : 40.0 Kbps\nChannel(s)                     : 2 channels\nChannel positions              : Front: L R\nSampling rate                  : 44.1 KHz\nStream size                    : 18.4 MiB (9%)\nLanguage                       : English\n\nSubtitle                       : Yes (English)\nSource                         : 720p.HDTV.x264-EVOLVE (Thanks)\n\nScreens:\n &lt;a href=&quot;\nhttp://ultraimg.com/images/iBvh.png&quot; rel=&quot;nofollow&quot; target=&quot;_NEW&quot;&gt;\nhttp://ultraimg.com/images/iBvh.png&lt;/a&gt; &lt;a href=&quot;\nhttp://ultraimg.com/images/VFxKO.png&quot; rel=&quot;nofollow&quot; target=&quot;_NEW&quot;&gt;\nhttp://ultraimg.com/images/VFxKO.png&lt;/a&gt; &lt;a href=&quot;\nhttp://ultraimg.com/images/mnesB.png&quot; rel=&quot;nofollow&quot; target=&quot;_NEW&quot;&gt;\nhttp://ultraimg.com/images/mnesB.png&lt;/a&gt; &lt;a href=&quot;\nhttp://ultraimg.com/images/VUD4p.png&quot; rel=&quot;nofollow&quot; target=&quot;_NEW&quot;&gt;\nhttp://ultraimg.com/images/VUD4p.png&lt;/a&gt; &lt;a href=&quot;\nhttp://ultraimg.com/images/sMZ5.png&quot; rel=&quot;nofollow&quot; target=&quot;_NEW&quot;&gt;\nhttp://ultraimg.com/images/sMZ5.png&lt;/a&gt; &lt;a href=&quot;\nhttp://ultraimg.com/images/25Ak.png&quot; rel=&quot;nofollow&quot; target=&quot;_NEW&quot;&gt;\nhttp://ultraimg.com/images/25Ak.png&lt;/a&gt;\n\n----------------------------------------------------------------------------------------------------\n\n\nEncoded using revolutionary 10bit encoding, which enables us to provide you more crispier \nand sharper images at small sizes, just make sure you follow our instructions without a fault.\nRecommend to you to use latest version of VLC player. Install K-Lite Codec Pack or shark007 codecs\nin case of any kind of problem in playback (For non-VLC Media Player users). Alternatively, install\nCore AVC codecs, the fastest decoder that there is coupled with Community Center Codec Pack and play\non Windows Media Player Classic. Check sample to be sure.\nEnjoy!\n\nEncoder Notes:Looking For Early Access To Anything You Can Provide DVDScr, R5, DVDR, BluRay, Direct\nAudio, Music Releases and Seedboxes. We require dedicated servers, so as to do more \nand fast releases of movies.\nIf You Got anything to offer please contact us at &quot;&lt;a class=&quot;__cf_email__&quot; href=&quot;/cdn-cgi/l/email-protection&quot; data-cfemail=&quot;99faf6f7edf8faedd9e9abe9fdf5b7faf6f4&quot;&gt;[email&amp;#160;protected]&lt;/a&gt;&lt;script cf-hash='f9e31' type=&quot;text/javascript&quot;&gt;\n/* &lt;![CDATA[ */!function(){try{var t=&quot;currentScript&quot;in document?document.currentScript:function(){for(var t=document.getElementsByTagName(&quot;script&quot;),e=t.length;e--;)if(t[e].getAttribute(&quot;cf-hash&quot;))return t[e]}();if(t&amp;&amp;t.previousSibling){var e,r,n,i,c=t.previousSibling,a=c.getAttribute(&quot;data-cfemail&quot;);if(a){for(e=&quot;&quot;,r=parseInt(a.substr(0,2),16),n=2;a.length-n;n+=2)i=parseInt(a.substr(n,2),16)^r,e+=String.fromCharCode(i);e=document.createTextNode(e),c.parentNode.replaceChild(e,c)}}}catch(u){}}();/* ]]&gt; */&lt;/script&gt;&quot;.\n\nFace book Fan Page:  \n","torrent":{"xt":"urn:btih:0a0034047fc9cb4bc34873e2ff7deed3b0c02a4d","amp;dn":"Game+of+Thrones+S03E10+480p+HDTV+x264+-+VYTO+%5BP2PDL%5D","amp;tr":["udp%3A%2F%2Ftracker.openbittorrent.com%3A80","udp%3A%2F%2Fopen.demonii.com%3A1337","udp%3A%2F%2Ftracker.coppersurfer.tk%3A6969","udp%3A%2F%2Fexodus.desync.com%3A6969"],"infoHash":"0a0034047fc9cb4bc34873e2ff7deed3b0c02a4d","infoHashBuffer":{"type":"Buffer","data":[10,0,52,4,127,201,203,75,195,72,115,226,255,125,238,211,176,192,42,77]},"announce":[],"urlList":[]}}